# xmcd
#
# Track frame offsets:
#	150
#	12123
#	22473
#	32148
#	46749
#	60377
#	75891
#	86215
#	98428
#	110841
#
# Disc length: 1645 seconds
#
# Revision: 0
# Processed by: cddbd v1.5.2PL0 Copyright (c) Steve Scherf et al.
# Submitted via: dBpowerAMP V4.0
#
DISCID=70066b0a
DTITLE=Various Artist - Bluegrass Barbecue
DYEAR=2006
DGENRE=Bluegrass
TTITLE0=The Stonemans - Watermelon On The Vine
TTITLE1=Lester Flatt - Shuckin' The Corn
TTITLE2=I Like My Chickens Frying Size - Merle Travis
TTITLE3=David West - Jambalaya
TTITLE4=Joe Maphis - Old Black Mountain Saturday Night
TTITLE5=Lester Flatt - We Don't Care What Mama Don't Allow
TTITLE6=The Stonemans - Cripple Creek
TTITLE7=Jimmy Martin - Sunny Side Of The Creek
TTITLE8=Brent Truitt - Party On The Patio
TTITLE9=Betty Jean Robinson - The Unclouded Day
EXTD=
EXTT0=
EXTT1=
EXTT2=
EXTT3=
EXTT4=
EXTT5=
EXTT6=
EXTT7=
EXTT8=
EXTT9=
PLAYORDER=
